<svg xmlns="http://www.w3.org/2000/svg" viewBox="0 0 100 100"><polygon points="50.0,13.6 47.1,18.7 52.9,18.7" fill="#f40505"/><polygon points="47.1,18.7 44.1,23.8 50.0,23.8" fill="#e41505"/><polygon points="52.9,18.7 50.0,23.8 55.9,23.8" fill="#e40515"/><polygon points="44.1,23.8 41.2,28.9 47.1,28.9" fill="#d42505"/><polygon points="41.2,28.9 38.2,33.9 44.1,33.9" fill="#c53505"/><polygon points="47.1,28.9 44.1,33.9 50.0,33.9" fill="#c52515"/><polygon points="55.9,23.8 52.9,28.9 58.8,28.9" fill="#d40525"/><polygon points="52.9,28.9 50.0,33.9 55.9,33.9" fill="#c51525"/><polygon points="58.8,28.9 55.9,33.9 61.8,33.9" fill="#c50535"/><polygon points="38.2,33.9 35.3,39.0 41.2,39.0" fill="#b54505"/><polygon points="35.3,39.0 32.4,44.1 38.2,44.1" fill="#a55505"/><polygon points="41.2,39.0 38.2,44.1 44.1,44.1" fill="#a54515"/><polygon points="32.4,44.1 29.4,49.2 35.3,49.2" fill="#956505"/><polygon points="29.4,49.2 26.5,54.3 32.4,54.3" fill="#857505"/><polygon points="35.3,49.2 32.4,54.3 38.2,54.3" fill="#856515"/><polygon points="44.1,44.1 41.2,49.2 47.1,49.2" fill="#954525"/><polygon points="41.2,49.2 38.2,54.3 44.1,54.3" fill="#855525"/><polygon points="47.1,49.2 44.1,54.3 50.0,54.3" fill="#854535"/><polygon points="61.8,33.9 58.8,39.0 64.7,39.0" fill="#b50545"/><polygon points="58.8,39.0 55.9,44.1 61.8,44.1" fill="#a51545"/><polygon points="64.7,39.0 61.8,44.1 67.6,44.1" fill="#a50555"/><polygon points="55.9,44.1 52.9,49.2 58.8,49.2" fill="#952545"/><polygon points="52.9,49.2 50.0,54.3 55.9,54.3" fill="#853545"/><polygon points="58.8,49.2 55.9,54.3 61.8,54.3" fill="#852555"/><polygon points="67.6,44.1 64.7,49.2 70.6,49.2" fill="#950565"/><polygon points="64.7,49.2 61.8,54.3 67.6,54.3" fill="#851565"/><polygon points="70.6,49.2 67.6,54.3 73.5,54.3" fill="#850575"/><polygon points="26.5,54.3 23.6,59.4 29.4,59.4" fill="#758505"/><polygon points="23.6,59.4 20.6,64.5 26.5,64.5" fill="#659505"/><polygon points="29.4,59.4 26.5,64.5 32.4,64.5" fill="#658515"/><polygon points="20.6,64.5 17.7,69.6 23.6,69.6" fill="#55a505"/><polygon points="17.7,69.6 14.8,74.6 20.6,74.6" fill="#45b505"/><polygon points="23.6,69.6 20.6,74.6 26.5,74.6" fill="#45a515"/><polygon points="32.4,64.5 29.4,69.6 35.3,69.6" fill="#558525"/><polygon points="29.4,69.6 26.5,74.6 32.4,74.6" fill="#459525"/><polygon points="35.3,69.6 32.4,74.6 38.2,74.6" fill="#458535"/><polygon points="14.8,74.6 11.8,79.7 17.7,79.7" fill="#35c505"/><polygon points="11.8,79.7 8.9,84.8 14.8,84.8" fill="#25d405"/><polygon points="17.7,79.7 14.8,84.8 20.6,84.8" fill="#25c515"/><polygon points="8.9,84.8 5.9,89.9 11.8,89.9" fill="#15e405"/><polygon points="5.9,89.9 3.0,95.0 8.9,95.0" fill="#05f405"/><polygon points="11.8,89.9 8.9,95.0 14.8,95.0" fill="#05e415"/><polygon points="20.6,84.8 17.7,89.9 23.6,89.9" fill="#15c525"/><polygon points="17.7,89.9 14.8,95.0 20.6,95.0" fill="#05d425"/><polygon points="23.6,89.9 20.6,95.0 26.5,95.0" fill="#05c535"/><polygon points="38.2,74.6 35.3,79.7 41.2,79.7" fill="#358545"/><polygon points="35.3,79.7 32.4,84.8 38.2,84.8" fill="#259545"/><polygon points="41.2,79.7 38.2,84.8 44.1,84.8" fill="#258555"/><polygon points="32.4,84.8 29.4,89.9 35.3,89.9" fill="#15a545"/><polygon points="29.4,89.9 26.5,95.0 32.4,95.0" fill="#05b545"/><polygon points="35.3,89.9 32.4,95.0 38.2,95.0" fill="#05a555"/><polygon points="44.1,84.8 41.2,89.9 47.1,89.9" fill="#158565"/><polygon points="41.2,89.9 38.2,95.0 44.1,95.0" fill="#059565"/><polygon points="47.1,89.9 44.1,95.0 50.0,95.0" fill="#058575"/><polygon points="73.5,54.3 70.6,59.4 76.4,59.4" fill="#750585"/><polygon points="70.6,59.4 67.6,64.5 73.5,64.5" fill="#651585"/><polygon points="76.4,59.4 73.5,64.5 79.4,64.5" fill="#650595"/><polygon points="67.6,64.5 64.7,69.6 70.6,69.6" fill="#552585"/><polygon points="64.7,69.6 61.8,74.6 67.6,74.6" fill="#453585"/><polygon points="70.6,69.6 67.6,74.6 73.5,74.6" fill="#452595"/><polygon points="79.4,64.5 76.4,69.6 82.3,69.6" fill="#5505a5"/><polygon points="76.4,69.6 73.5,74.6 79.4,74.6" fill="#4515a5"/><polygon points="82.3,69.6 79.4,74.6 85.2,74.6" fill="#4505b5"/><polygon points="61.8,74.6 58.8,79.7 64.7,79.7" fill="#354585"/><polygon points="58.8,79.7 55.9,84.8 61.8,84.8" fill="#255585"/><polygon points="64.7,79.7 61.8,84.8 67.6,84.8" fill="#254595"/><polygon points="55.9,84.8 52.9,89.9 58.8,89.9" fill="#156585"/><polygon points="52.9,89.9 50.0,95.0 55.9,95.0" fill="#057585"/><polygon points="58.8,89.9 55.9,95.0 61.8,95.0" fill="#056595"/><polygon points="67.6,84.8 64.7,89.9 70.6,89.9" fill="#1545a5"/><polygon points="64.7,89.9 61.8,95.0 67.6,95.0" fill="#0555a5"/><polygon points="70.6,89.9 67.6,95.0 73.5,95.0" fill="#0545b5"/><polygon points="85.2,74.6 82.3,79.7 88.2,79.7" fill="#3505c5"/><polygon points="82.3,79.7 79.4,84.8 85.2,84.8" fill="#2515c5"/><polygon points="88.2,79.7 85.2,84.8 91.1,84.8" fill="#2505d4"/><polygon points="79.4,84.8 76.4,89.9 82.3,89.9" fill="#1525c5"/><polygon points="76.4,89.9 73.5,95.0 79.4,95.0" fill="#0535c5"/><polygon points="82.3,89.9 79.4,95.0 85.2,95.0" fill="#0525d4"/><polygon points="91.1,84.8 88.2,89.9 94.1,89.9" fill="#1505e4"/><polygon points="88.2,89.9 85.2,95.0 91.1,95.0" fill="#0515e4"/><polygon points="94.1,89.9 91.1,95.0 97.0,95.0" fill="#0505f4"/></svg>